<?xml version="1.0" encoding="UTF-8"?>
<svg version="1.1" xmlns="http://www.w3.org/2000/svg" width="504" height="407">
<path d="M0 0 C6.63783144 3.9933835 12.93711104 9.45607792 14.94140625 17.16796875 C15.87904027 24.56047273 15.42613739 30.01720167 10.94140625 36.16796875 C9.03310428 38.12740998 7.19137674 39.89920861 5.12890625 41.66796875 C1.73253135 44.6744275 -1.63986181 47.66873784 -4.80859375 50.91796875 C-7.7083694 53.86665628 -10.75998854 56.58445245 -13.890625 59.28515625 C-16.30702326 61.38372195 -18.68388399 63.52236575 -21.05859375 65.66796875 C-23.9953784 68.31910869 -26.94461917 70.95087046 -29.93359375 73.54296875 C-35.40492787 78.31115953 -40.72064639 83.25178513 -46.05859375 88.16796875 C-54.57956226 96.01567555 -63.15440469 103.75510683 -72.05859375 111.16796875 C-70.89037236 111.16612516 -69.72215097 111.16428158 -68.51852894 111.16238213 C-40.74659506 111.11900529 -12.97466382 111.08605717 14.79729686 111.06583809 C18.22041476 111.06333687 21.6435326 111.06074821 25.06665039 111.05810547 C26.08881151 111.05731854 26.08881151 111.05731854 27.13162235 111.05651571 C38.1450455 111.04782859 49.15844763 111.032068 60.17185833 111.01366316 C71.48447492 110.99491689 82.79707598 110.98399162 94.10970908 110.97979176 C100.4588434 110.97718933 106.80793014 110.97109232 113.15704918 110.95650864 C119.13974236 110.94287867 125.12236861 110.93875704 131.10507584 110.94175339 C133.29430951 110.94120564 135.48354554 110.93726063 137.67276573 110.9295578 C170.46976703 110.81987427 170.46976703 110.81987427 178.94140625 119.16796875 C184.13050038 126.3653421 185.8703838 133.36848692 184.94140625 142.16796875 C182.79639811 149.55892072 178.95241296 154.64843922 172.19140625 158.41796875 C165.40042423 162.02014182 156.53285703 161.31783836 149.05149841 161.32618713 C148.09642444 161.33112511 147.14135047 161.33606309 146.15733486 161.3411507 C142.97915912 161.35642423 139.80100342 161.36485862 136.62280273 161.37329102 C134.33578823 161.38287753 132.04877547 161.39288806 129.76176453 161.40328979 C123.56829132 161.43026115 117.37481055 161.45131267 111.18131137 161.47129178 C104.70305943 161.49319939 98.22483058 161.52056467 91.74659729 161.54734802 C80.87819411 161.59154819 70.00978308 161.63239421 59.14135742 161.6706543 C47.95026728 161.71005949 36.75918768 161.75149763 25.56811523 161.7956543 C24.87749677 161.79837857 24.18687831 161.80110284 23.47533201 161.80390967 C20.01046306 161.81758997 16.54559427 161.83131008 13.08072555 161.84504998 C-15.63235872 161.95885993 -44.34546642 162.06563145 -73.05859375 162.16796875 C-72.38335159 162.77428635 -71.70810944 163.38060394 -71.0124054 164.0052948 C-70.12055038 164.80687515 -69.22869537 165.60845551 -68.30981445 166.43432617 C-67.4283223 167.22626877 -66.54683014 168.01821136 -65.6386261 168.83415222 C-62.13247366 172.005708 -58.68448407 175.23584018 -55.24609375 178.48046875 C-50.37123262 183.0661432 -45.48432859 187.63697115 -40.55859375 192.16796875 C-35.69865834 196.63989746 -30.87255216 201.1465966 -26.05859375 205.66796875 C-21.07199053 210.34917235 -16.0789969 215.02300573 -11.05859375 219.66796875 C-10.25989868 220.4091394 -10.25989868 220.4091394 -9.44506836 221.1652832 C-6.57137334 223.8194252 -3.63632561 226.36462504 -0.62109375 228.85546875 C4.59659444 233.35461937 9.3989297 239.51042007 10.21484375 246.515625 C10.52538422 254.81661076 8.69524652 260.9979077 3.07421875 267.2421875 C-2.46777026 272.38523956 -7.77927137 275.2648035 -15.43359375 275.60546875 C-27.02321807 275.14881236 -33.50582561 268.43031885 -41.43408203 260.73193359 C-43.84620416 258.40971322 -46.32826894 256.16693267 -48.80859375 253.91796875 C-54.44975139 248.76520663 -60.00889111 243.5262931 -65.56713867 238.28442383 C-70.23952716 233.8781676 -74.92313895 229.48445353 -79.62109375 225.10546875 C-84.77479217 220.30131246 -89.92026675 215.48856345 -95.05859375 210.66796875 C-102.7128319 203.48795252 -110.3835262 196.32570683 -118.05859375 189.16796875 C-120.53797939 186.85570337 -123.01713388 184.54319058 -125.49609375 182.23046875 C-126.41394653 181.37449097 -126.41394653 181.37449097 -127.3503418 180.5012207 C-130.653787 177.41878215 -133.95151572 174.33044942 -137.2421875 171.234375 C-137.93739502 170.58082031 -138.63260254 169.92726562 -139.34887695 169.25390625 C-140.72489562 167.95958819 -142.09975796 166.66403957 -143.47338867 165.3671875 C-147.00408767 162.04541338 -150.59126711 158.84449156 -154.30859375 155.73046875 C-160.2567918 150.52011969 -162.78910787 144.21025689 -163.30859375 136.41796875 C-163.07086267 126.50641127 -157.80096267 120.86871811 -151.05859375 114.16796875 C-147.79434032 111.08506273 -144.4520938 108.10752589 -141.05859375 105.16796875 C-139.76652162 104.04343446 -138.47483322 102.91845905 -137.18359375 101.79296875 C-136.54421875 101.23609375 -135.90484375 100.67921875 -135.24609375 100.10546875 C-132.0015356 97.23171724 -128.81593811 94.2943162 -125.62597656 91.36035156 C-120.80312464 86.92599872 -115.93535352 82.54293974 -111.05859375 78.16796875 C-109.39166728 76.66825747 -107.72500226 75.16825554 -106.05859375 73.66796875 C-103.58357141 71.43967761 -101.10787621 69.21218035 -98.62890625 66.98828125 C-94.03828811 62.86699148 -89.47409407 58.71926162 -84.93359375 54.54296875 C-81.69642159 51.56578594 -78.44721646 48.60844019 -75.12109375 45.73046875 C-71.52900784 42.61832751 -68.04307383 39.39924789 -64.55859375 36.16796875 C-60.47288496 32.37914939 -56.35466102 28.64625011 -52.140625 25 C-49.45340984 22.63545233 -46.81887789 20.2149499 -44.18359375 17.79296875 C-43.41221069 17.08781128 -43.41221069 17.08781128 -42.62524414 16.3684082 C-40.19826288 14.14771844 -37.79302208 11.91339709 -35.41796875 9.63671875 C-25.40615356 0.19161008 -13.77205134 -6.12410634 0 0 Z " fill="#FEFEFE" transform="translate(241.05859375,66.83203125)"/>
</svg>
